<?xml version="1.0" encoding="UTF-8" standalone="no"?>
<svg
   width="16"
   height="16"
   viewBox="0 0 16 16"
   version="1.1"
   id="svg101"
   sodipodi:docname="favicon.svg"
   inkscape:version="1.1.1 (c3084ef, 2021-09-22)"
   inkscape:export-filename="/Users/ronan/Dev/cp4d-ocp-tips.public/docs/img/favicon.png"
   inkscape:export-xdpi="96"
   inkscape:export-ydpi="96"
   xmlns:inkscape="http://www.inkscape.org/namespaces/inkscape"
   xmlns:sodipodi="http://sodipodi.sourceforge.net/DTD/sodipodi-0.dtd"
   xmlns:xlink="http://www.w3.org/1999/xlink"
   xmlns="http://www.w3.org/2000/svg"
   xmlns:svg="http://www.w3.org/2000/svg"
   xmlns:rdf="http://www.w3.org/1999/02/22-rdf-syntax-ns#"
   xmlns:cc="http://creativecommons.org/ns#"
   xmlns:dc="http://purl.org/dc/elements/1.1/">
  <sodipodi:namedview
     id="namedview103"
     pagecolor="#505050"
     bordercolor="#eeeeee"
     borderopacity="1"
     inkscape:pageshadow="0"
     inkscape:pageopacity="0"
     inkscape:pagecheckerboard="0"
     showgrid="false"
     inkscape:zoom="15.43193"
     inkscape:cx="8.1324888"
     inkscape:cy="6.5772718"
     inkscape:window-width="1680"
     inkscape:window-height="943"
     inkscape:window-x="0"
     inkscape:window-y="25"
     inkscape:window-maximized="1"
     inkscape:current-layer="svg101"
     width="16px" />
  <!-- Generator: Sketch 55.2 (78181) - https://sketchapp.com -->
  <title
     id="title73">data-icon</title>
  <desc
     id="desc75">Created with Sketch.</desc>
  <defs
     id="defs78">
    <polygon
       id="path-1"
       points="349.9996,405.68142 0,405.68142 0,0 349.9996,0 " />
  </defs>
  <g
     id="Page-1"
     stroke="none"
     stroke-width="1"
     fill="none"
     fill-rule="evenodd"
     style="fill:#ffffff"
     transform="matrix(0.04000005,0,0,0.03943981,0.90720991,-0.06480071)">
    <g
       id="data-icon"
       style="fill:#ffffff">
      <path
         d="m 75.887955,125.14608 c 3.909659,0 7.079545,-3.15796 7.079545,-7.06364 0,-3.89772 -3.169886,-7.06363 -7.079545,-7.06363 -3.909659,0 -7.079546,3.16591 -7.079546,7.06363 0,3.90568 3.169887,7.06364 7.079546,7.06364"
         id="Fill-1"
         fill="#005DFF"
         fill-rule="nonzero"
         style="fill:#ffffff" />
      <path
         d="m 189.15869,111.0208 c 3.90966,0 7.07955,-3.15796 7.07955,-7.06364 0,-3.89773 -3.16989,-7.063637 -7.07955,-7.063637 -3.90966,0 -7.07954,3.165907 -7.07954,7.063637 0,3.90568 3.16988,7.06364 7.07954,7.06364"
         id="Fill-3"
         fill="#005DFF"
         fill-rule="nonzero"
         style="fill:#ffffff" />
      <path
         d="m 118.36403,96.894716 c 3.90966,0 7.07955,-3.157955 7.07955,-7.063636 0,-3.89375 -3.16989,-7.063637 -7.07955,-7.063637 -3.90965,0 -7.07954,3.169887 -7.07954,7.063637 0,3.905681 3.16989,7.063636 7.07954,7.063636"
         id="Fill-5"
         fill="#005DFF"
         fill-rule="nonzero"
         style="fill:#ffffff" />
      <path
         d="m 58.190284,248.74341 c -3.909659,0 -7.079545,3.16591 -7.079545,7.06363 0,3.90171 3.169886,7.06364 7.079545,7.06364 3.909659,0 7.079545,-3.16193 7.079545,-7.06364 0,-3.89772 -3.169886,-7.06363 -7.079545,-7.06363"
         id="Fill-7"
         fill="#005DFF"
         fill-rule="nonzero"
         style="fill:#ffffff" />
      <path
         d="m 245.79426,139.27136 c -3.90966,0 -7.07954,3.16591 -7.07954,7.06364 0,3.9017 3.16988,7.06364 7.07954,7.06364 3.90966,0 7.07955,-3.16194 7.07955,-7.06364 0,-3.89773 -3.16989,-7.06364 -7.07955,-7.06364"
         id="Fill-9"
         fill="#005DFF"
         fill-rule="nonzero"
         style="fill:#ffffff" />
      <path
         d="m 104.20693,224.02386 c 3.90966,0 7.07955,-3.15795 7.07955,-7.06363 0,-3.89773 -3.16989,-7.06364 -7.07955,-7.06364 -3.90966,0 -7.079544,3.16591 -7.079544,7.06364 0,3.90568 3.169884,7.06363 7.079544,7.06363"
         id="Fill-11"
         fill="#005DFF"
         fill-rule="nonzero"
         style="fill:#ffffff" />
      <path
         d="m 302.42943,252.27443 c -3.90966,0 -7.07954,3.16591 -7.07954,7.06364 0,3.9017 3.16988,7.06363 7.07954,7.06363 3.90966,0 7.07955,-3.16193 7.07955,-7.06363 0,-3.89773 -3.16989,-7.06364 -7.07955,-7.06364"
         id="Fill-13"
         fill="#005DFF"
         fill-rule="nonzero"
         style="fill:#ffffff" />
      <path
         d="m 174.9996,337.02693 c -3.90966,0 -7.07954,3.16591 -7.07954,7.06364 0,3.9017 3.16988,7.06363 7.07954,7.06363 3.90966,0 7.07955,-3.16193 7.07955,-7.06363 0,-3.89773 -3.16989,-7.06364 -7.07955,-7.06364"
         id="Fill-15"
         fill="#005DFF"
         fill-rule="nonzero"
         style="fill:#ffffff" />
      <path
         d="m 259.95176,280.5258 c -3.90966,0 -7.07954,3.16591 -7.07954,7.06363 0,3.90171 3.16988,7.06364 7.07954,7.06364 3.90966,0 7.07955,-3.16193 7.07955,-7.06364 0,-3.89772 -3.16989,-7.06363 -7.07955,-7.06363"
         id="Fill-17"
         fill="#005DFF"
         fill-rule="nonzero"
         style="fill:#ffffff" />
      <path
         d="m 259.95176,209.89858 c -3.90966,0 -7.07954,3.16591 -7.07954,7.06364 0,3.9017 3.16988,7.06363 7.07954,7.06363 3.90966,0 7.07955,-3.16193 7.07955,-7.06363 0,-3.89773 -3.16989,-7.06364 -7.07955,-7.06364"
         id="Fill-19"
         fill="#005DFF"
         fill-rule="nonzero"
         style="fill:#ffffff" />
      <g
         id="Group-23"
         style="fill:#ffffff">
        <g
           id="Fill-21-Clipped"
           style="fill:#ffffff">
          <mask
             id="mask-2"
             fill="#ffffff">
            <use
               xlink:href="#path-1"
               id="use90"
               x="0"
               y="0"
               width="100%"
               height="100%" />
          </mask>
          <g
             id="g93"
             style="fill:#ffffff" />
          <path
             d="M 339.80983,298.79619 174.9996,394.70812 10.193352,298.79619 V 106.88085 L 174.9996,10.96892 339.80983,106.88085 Z M 347.47006,99.570625 177.56494,0.69164773 c -1.575,-0.92272727 -3.55568,-0.92272727 -5.13068,0 L 2.5291477,99.570625 c -1.56704543,0.910795 -2.52954542727,2.581255 -2.52954542727,4.386935 v 197.75795 c 0,1.81364 0.96249999727,3.48011 2.52954542727,4.39091 L 172.43426,404.9854 c 0.7875,0.46136 1.68239,0.69602 2.56534,0.69602 0.88693,0 1.77784,-0.23466 2.56534,-0.69602 l 169.90512,-98.87898 c 1.56704,-0.9108 2.52954,-2.57727 2.52954,-4.39091 V 103.95756 c 0,-1.80568 -0.9625,-3.47614 -2.52954,-4.386935 z"
             id="Fill-21"
             fill="#005DFF"
             fill-rule="nonzero"
             mask="url(#mask-2)"
             style="fill:#ffffff" />
        </g>
      </g>
      <path
         d="m 231.63477,94.922386 c 4.99943,0 9.06421,4.056818 9.06421,9.036364 0,4.9875 -4.06478,9.04034 -9.06421,9.04034 -4.99943,0 -9.0642,-4.05284 -9.0642,-9.04034 0,-4.979546 4.06477,-9.036364 9.0642,-9.036364 z M 217.47568,236.17523 c 4.99943,0 9.06421,4.05681 9.06421,9.03636 0,4.9875 -4.06478,9.04432 -9.06421,9.04432 -4.99545,0 -9.0642,-4.05682 -9.0642,-9.04432 0,-4.97955 4.06875,-9.03636 9.0642,-9.03636 z m -42.47727,-18.44262 c -8.225,0 -14.92671,-6.68182 -14.92671,-14.89091 0,-8.21306 6.70171,-14.89091 14.92671,-14.89091 8.22898,0 14.9267,6.67785 14.9267,14.89091 0,8.20909 -6.69772,14.89091 -14.9267,14.89091 z m 113.27273,-52.18182 c 4.99943,0 9.0642,4.05285 9.0642,9.03239 0,4.9875 -4.06477,9.04432 -9.0642,9.04432 -4.99944,0 -9.06421,-4.05682 -9.06421,-9.04432 0,-4.97954 4.06477,-9.03239 9.06421,-9.03239 z M 118.36602,310.75704 c -4.99943,0 -9.0642,-4.05681 -9.0642,-9.04431 0,-4.97955 4.06477,-9.03239 9.0642,-9.03239 4.99546,0 9.06421,4.05284 9.06421,9.03239 0,4.9875 -4.06875,9.04431 -9.06421,9.04431 z M 61.729659,183.6275 c -4.999432,0 -9.064204,-4.05682 -9.064204,-9.04432 0,-4.97954 4.064772,-9.03239 9.064204,-9.03239 4.999432,0 9.064205,4.05285 9.064205,9.03239 0,4.9875 -4.064773,9.04432 -9.064205,9.04432 z m 61.731251,-51.41818 c 0,-4.97955 4.06477,-9.03636 9.0642,-9.03636 4.99546,0 9.06023,4.05681 9.06023,9.03636 0,4.9875 -4.06477,9.04034 -9.06023,9.04034 -4.99943,0 -9.0642,-4.05284 -9.0642,-9.04034 z m 59.25738,46.90795 c -2.44602,-0.79545 -5.00738,-1.33238 -7.71988,-1.33238 -2.89546,0 -5.6358,0.58465 -8.22898,1.49147 L 146.4217,145.43773 c 3.29716,-3.4483 5.35739,-8.08977 5.35739,-13.22841 0,-10.5875 -8.63864,-19.21023 -19.25398,-19.21023 -10.61932,0 -19.25397,8.62273 -19.25397,19.21023 0,10.59147 8.63465,19.2142 19.25397,19.2142 1.78978,0 3.49205,-0.32216 5.13864,-0.78352 l 20.35966,33.85057 c -2.29887,2.12386 -4.17216,4.64545 -5.55227,7.4892 L 80.935909,174.13773 c -0.246591,-10.38069 -8.742045,-18.7608 -19.20625,-18.7608 -10.619318,0 -19.253977,8.62273 -19.253977,19.20625 0,10.59546 8.634659,19.21818 19.253977,19.21818 7.178977,0 13.375568,-3.9892 16.688636,-9.80795 l 71.567045,17.85 c -0.0159,0.33807 -0.10341,0.65625 -0.10341,0.99829 0,7.45739 3.34886,14.08353 8.54716,18.68523 l -35.3142,61.63977 c -1.52728,-0.38579 -3.0983,-0.66022 -4.74887,-0.66022 -10.61931,0 -19.253975,8.61875 -19.253975,19.20625 0,10.59545 8.634665,19.21818 19.253975,19.21818 10.61534,0 19.25398,-8.62273 19.25398,-19.21818 0,-5.28182 -2.15171,-10.07046 -5.62784,-13.54659 l 35.29034,-61.60398 c 2.44602,0.79943 5.00739,1.33636 7.71591,1.33636 5.08693,0 9.80795,-1.53523 13.76534,-4.13636 l 12.04716,12.01534 c -1.59887,2.8 -2.58921,5.99375 -2.58921,9.43409 0,10.59545 8.63466,19.21818 19.25398,19.21818 10.61932,0 19.25398,-8.62273 19.25398,-19.21818 0,-10.5875 -8.63466,-19.20625 -19.25398,-19.20625 -3.45625,0 -6.65398,0.98636 -9.46193,2.58523 l -12.04318,-12.0233 c 2.60511,-3.94545 4.14432,-8.65454 4.14432,-13.72557 0,-0.34204 -0.0875,-0.66022 -0.0994,-0.99829 l 71.56705,-17.85 c 3.31307,5.81875 9.50966,9.80795 16.68864,9.80795 10.61931,0 19.25397,-8.62272 19.25397,-19.21818 0,-10.58352 -8.63466,-19.20625 -19.25397,-19.20625 -10.46819,0 -18.96364,8.38011 -19.21023,18.7608 l -71.53125,17.84204 c -1.45966,-2.99886 -3.48409,-5.63579 -5.95796,-7.82329 l 35.31023,-61.64375 c 1.52727,0.38579 3.10227,0.66023 4.75284,0.66023 10.61932,0 19.25398,-8.62273 19.25398,-19.21421 0,-10.5875 -8.63466,-19.210227 -19.25398,-19.210227 -10.61932,0 -19.25398,8.622727 -19.25398,19.210227 0,5.28182 2.15171,10.07443 5.62387,13.55057 z"
         id="Fill-24"
         fill="#005DFF"
         fill-rule="nonzero"
         style="fill:#ffffff" />
    </g>
  </g>
  <metadata
     id="metadata219">
    <rdf:RDF>
      <cc:Work
         rdf:about="">
        <dc:title>data-icon</dc:title>
      </cc:Work>
    </rdf:RDF>
  </metadata>
</svg>
